<?xml version="1.0" standalone="no"?>
<!DOCTYPE svg PUBLIC "-//W3C//DTD SVG 20010904//EN"
 "http://www.w3.org/TR/2001/REC-SVG-20010904/DTD/svg10.dtd">
<svg version="1.0" xmlns="http://www.w3.org/2000/svg"
 width="841.000000pt" height="144.000000pt" viewBox="0 0 841.000000 144.000000"
 preserveAspectRatio="xMidYMid meet">

<g transform="translate(0.000000,144.000000) scale(0.100000,-0.100000)"
fill="#000000" stroke="none">
<path d="M5481 1299 c-69 -12 -173 -56 -244 -103 -118 -78 -215 -218 -252
-361 -20 -77 -20 -233 0 -310 60 -232 253 -414 491 -461 313 -62 625 134 720
452 25 81 25 247 0 328 -63 212 -230 379 -436 440 -69 21 -208 28 -279 15z
m274 -277 c77 -39 146 -111 182 -187 24 -52 28 -72 28 -155 0 -82 -4 -103 -27
-152 -37 -80 -107 -152 -187 -191 -60 -29 -74 -32 -161 -32 -82 0 -103 4 -152
27 -80 37 -152 107 -191 187 -29 60 -32 74 -32 161 0 82 4 103 27 152 47 102
152 192 253 219 17 5 68 7 115 5 71 -3 95 -8 145 -34z"/>
<path d="M240 1185 l0 -115 400 0 400 0 0 115 0 115 -400 0 -400 0 0 -115z"/>
<path d="M1070 1295 c0 -3 104 -283 232 -621 l232 -615 100 3 100 3 208 550
c114 303 219 580 233 618 l25 67 -133 0 -132 0 -138 -383 c-161 -445 -162
-447 -171 -427 -3 8 -71 193 -150 410 l-144 395 -131 3 c-72 1 -131 0 -131 -3z"/>
<path d="M2250 1185 l0 -115 400 0 400 0 0 115 0 115 -400 0 -400 0 0 -115z"/>
<path d="M3200 681 l0 -621 120 0 120 0 2 502 3 503 130 0 c110 0 136 -3 169
-20 53 -27 78 -63 84 -123 11 -123 -60 -192 -199 -192 l-59 0 0 -123 0 -122
147 -213 147 -212 149 0 148 0 -19 28 c-10 15 -83 118 -161 230 -78 111 -139
207 -136 212 3 6 12 10 19 10 26 0 125 81 154 127 91 144 82 356 -22 496 -26
36 -107 89 -171 112 -43 16 -90 19 -337 23 l-288 4 0 -621z"/>
<path d="M4090 1185 l0 -115 170 0 170 0 0 -505 0 -505 125 0 125 0 0 505 0
505 170 0 170 0 0 115 0 115 -465 0 -465 0 0 -115z"/>
<path d="M6320 898 c0 -321 3 -416 15 -466 43 -181 179 -320 362 -367 256 -67
537 110 592 373 7 34 11 202 11 457 l0 405 -119 0 -120 0 -3 -407 c-3 -351 -5
-413 -19 -444 -83 -181 -331 -201 -434 -35 l-30 49 -3 419 -3 418 -124 0 -125
0 0 -402z"/>
<path d="M7460 680 l0 -620 120 0 120 0 2 502 3 503 135 0 c117 0 140 -3 169
-20 49 -29 73 -67 79 -124 6 -64 -2 -92 -35 -131 -34 -40 -61 -51 -148 -59
l-70 -6 -2 -120 -3 -120 147 -212 147 -213 143 0 c84 0 143 4 143 9 0 6 -70
110 -155 231 -85 122 -153 226 -150 231 4 5 12 9 19 9 26 0 125 81 154 127 48
75 65 151 60 259 -4 75 -11 104 -36 157 -53 113 -144 182 -276 206 -33 6 -173
11 -313 11 l-253 0 0 -620z"/>
<path d="M240 680 l0 -120 400 0 401 0 -3 118 -3 117 -397 3 -398 2 0 -120z"/>
<path d="M2250 680 l0 -120 400 0 400 0 0 120 0 120 -400 0 -400 -1 0 -119z"/>
<path d="M240 175 l0 -115 400 0 400 0 0 115 0 115 -400 0 -400 0 0 -115z"/>
<path d="M2250 175 l0 -115 400 0 400 0 0 115 0 115 -400 0 -400 0 0 -115z"/>
</g>
</svg>
